# xmcd CD database file
#
# Track frame offsets:
#	150
#	17526
#	36591
#	65659
#	90270
#	107349
#	138222
#	167828
#	193688
#	219817
#	244447
#
# Disc length: 3537 seconds
#
# Revision: 0
# Processed by: cddbd v1.5.1PL0 Copyright (c) Steve Scherf et al.
# Submitted via: CDex 1.51
#
DISCID=8f0dcf0b
DTITLE=Tom Waits - Europe 2004 Disc 3
DYEAR=2004
DGENRE=Blues
TTITLE0=All The World Is Green
TTITLE1=Way Down In The Hole
TTITLE2=Top Of The Hill
TTITLE3=Misery Is The River
TTITLE4=Lost In The Harbour
TTITLE5=Get Behind The Mule
TTITLE6=16 Shells
TTITLE7=Always Keep A Diamond
TTITLE8=The Earth Died Screaming
TTITLE9=Heartattack And Vine
TTITLE10=Lucky Day
EXTD=YEAR: 2004
EXTT0=
EXTT1=
EXTT2=
EXTT3=
EXTT4=
EXTT5=
EXTT6=
EXTT7=
EXTT8=
EXTT9=
EXTT10=
PLAYORDER=
